<svg xmlns="http://www.w3.org/2000/svg" viewBox="0 0 520 160" width="520" height="160">
  <defs>
    <linearGradient id="greenGrad" x1="0%" y1="0%" x2="100%" y2="100%">
      <stop offset="0%" style="stop-color:#3CB371"/>
      <stop offset="100%" style="stop-color:#2E8B57"/>
    </linearGradient>
    <linearGradient id="leafGrad" x1="0%" y1="0%" x2="100%" y2="100%">
      <stop offset="0%" style="stop-color:#66BB6A"/>
      <stop offset="100%" style="stop-color:#388E3C"/>
    </linearGradient>
    <linearGradient id="darkGrad" x1="0%" y1="0%" x2="100%" y2="0%">
      <stop offset="0%" style="stop-color:#FFFFFF"/>
      <stop offset="100%" style="stop-color:#E8F5E9"/>
    </linearGradient>
    <linearGradient id="skinTone" x1="0%" y1="0%" x2="0%" y2="100%">
      <stop offset="0%" style="stop-color:#FFE0B2"/>
      <stop offset="100%" style="stop-color:#FFCC80"/>
    </linearGradient>
    <linearGradient id="skinTone2" x1="0%" y1="0%" x2="0%" y2="100%">
      <stop offset="0%" style="stop-color:#D7CCC8"/>
      <stop offset="100%" style="stop-color:#BCAAA4"/>
    </linearGradient>
  </defs>

  <!-- ═══ ICON ═══ -->
  <g transform="translate(8, 6) scale(0.9)">
    <!-- Corps principal -->
    <rect x="14" y="82" rx="14" ry="14" width="124" height="42" fill="url(#greenGrad)"/>
    <!-- Toit -->
    <path d="M34 82 C34 82, 42 36, 76 32 C110 28, 120 42, 124 60 L128 78 C128 78, 130 82, 128 84 L24 84 C22 84, 22 82, 24 80 Z" fill="url(#greenGrad)"/>
    <!-- Pare-brise -->
    <path d="M44 80 C44 80, 50 44, 76 40 C102 36, 112 48, 116 66 L118 80 Z" fill="white" opacity="0.3"/>
    <line x1="80" y1="42" x2="80" y2="80" stroke="#2E8B57" stroke-width="2.5" opacity="0.5"/>

    <!-- Passagers -->
    <g transform="translate(58, 48)">
      <circle cx="0" cy="0" r="8" fill="url(#skinTone)"/>
      <path d="M-8 -2 C-8 -8, -4 -10, 0 -10 C4 -10, 8 -8, 8 -2 L8 2 C6 0, 4 -6, 0 -7 C-4 -6, -6 0, -8 2 Z" fill="#5D4037"/>
      <path d="M-3 2.5 C-1 5.5, 1 5.5, 3 2.5" stroke="#D84315" stroke-width="1.3" fill="none" stroke-linecap="round"/>
      <g transform="translate(10, -6)">
        <circle cx="0" cy="0" r="3.5" fill="url(#skinTone)"/>
        <line x1="0" y1="-3.5" x2="0" y2="-8" stroke="#FFCC80" stroke-width="1.5" stroke-linecap="round"/>
      </g>
    </g>
    <g transform="translate(80, 46)">
      <circle cx="0" cy="0" r="9" fill="url(#skinTone2)"/>
      <path d="M-9 -2 C-9 -8, -5 -12, 0 -12 C5 -12, 9 -8, 9 -2 L8 0 C7 -4, 4 -8, 0 -8 C-4 -8, -7 -4, -8 0 Z" fill="#37474F"/>
      <path d="M-3.5 3 C-1.5 6.5, 1.5 6.5, 3.5 3" stroke="#D84315" stroke-width="1.3" fill="none" stroke-linecap="round"/>
    </g>
    <g transform="translate(100, 50)">
      <circle cx="0" cy="0" r="7.5" fill="url(#skinTone)"/>
      <path d="M-7.5 -1 C-7.5 -7, -4 -9.5, 0 -9.5 C4 -9.5, 7.5 -7, 7.5 -1 L6.5 1 C5.5 -3, 3 -6, 0 -6.5 C-3 -6, -5.5 -3, -6.5 1 Z" fill="#8D6E63"/>
      <path d="M-2.5 2 C-1 4.5, 1 4.5, 2.5 2" stroke="#D84315" stroke-width="1.2" fill="none" stroke-linecap="round"/>
    </g>

    <!-- Phares -->
    <ellipse cx="132" cy="90" rx="6" ry="5" fill="white" opacity="0.8"/>
    <rect x="14" y="90" rx="3" ry="3" width="6" height="6" fill="#FF7043" opacity="0.6"/>

    <!-- Jupe basse -->
    <rect x="20" y="120" rx="4" ry="4" width="112" height="5" fill="#2E8B57" opacity="0.35"/>

    <!-- Roues -->
    <circle cx="42" cy="126" r="16" fill="#263238"/>
    <circle cx="42" cy="126" r="10.5" fill="#455A64"/>
    <circle cx="42" cy="126" r="4.5" fill="#78909C"/>
    <circle cx="110" cy="126" r="16" fill="#263238"/>
    <circle cx="110" cy="126" r="10.5" fill="#455A64"/>
    <circle cx="110" cy="126" r="4.5" fill="#78909C"/>

    <!-- Feuille -->
    <g transform="translate(104, 20)">
      <path d="M0 16 C0 16, 6 -6, 22 2 C22 2, 10 2, 6 16" fill="url(#leafGrad)"/>
      <path d="M2 14 C2 14, -3 4, 10 4 C10 4, 3 6, 2 14" fill="#81C784" opacity="0.7"/>
    </g>

    <!-- Lignes de mouvement -->
    <line x1="0" y1="92" x2="10" y2="92" stroke="#3CB371" stroke-width="2.5" stroke-linecap="round" opacity="0.3"/>
    <line x1="-4" y1="100" x2="8" y2="100" stroke="#3CB371" stroke-width="2" stroke-linecap="round" opacity="0.2"/>
  </g>

  <!-- ═══ TEXTE ═══ -->
  <g transform="translate(160, 70)">
    <text font-family="'Segoe UI', 'Helvetica Neue', Arial, sans-serif" font-weight="800" font-size="72" fill="#b8f0cc" letter-spacing="-2">
      Eco
    </text>
    <text x="134" font-family="'Segoe UI', 'Helvetica Neue', Arial, sans-serif" font-weight="800" font-size="72" fill="url(#darkGrad)" letter-spacing="-2">
      Ride
    </text>
  </g>

  <!-- Tagline -->
  <text x="165" y="105" font-family="'Segoe UI', 'Helvetica Neue', Arial, sans-serif" font-weight="500" font-size="13" fill="rgba(255,255,255,0.6)" letter-spacing="3">
    COVOITURAGE ÉCO-RESPONSABLE
  </text>
</svg>
